# xmcd
#
# Track frame offsets: 
#        150
#        14557
#        26420
#        41502
#        52942
#        68457
#        83462
#        106550
#        115637
#        126925
#        137512
#        150217
#        170332
#        179562
#
# Disc length: 2615 seconds
#
# Revision: 0
# Processed by: cddbd v1.5.1PL2 Copyright (c) Steve Scherf et al.
# Submitted via: ExactAudioCopy v0.95b3
#
DISCID=990a350e
DTITLE=LaVerne Tripp - Songs for Overcomers Disk 2
DYEAR=2003
DGENRE=Gospel
TTITLE0=After Calvary
TTITLE1=Everybody Needs A Little Love
TTITLE2=The Blood
TTITLE3=Never Been So Blessed
TTITLE4=HE Has Come
TTITLE5=What Can I Do But Praise
TTITLE6=THOU Art Worthy
TTITLE7=Let Everything That Hath Breath
TTITLE8=King's Kid
TTITLE9=Power In the NAME of JESUS
TTITLE10=I'll Get My Reward
TTITLE11=My SHEPHERD
TTITLE12=We're Leaving Here
TTITLE13=JESUS Comes in the Midst of the Storm
EXTD=
EXTT0=
EXTT1=
EXTT2=
EXTT3=
EXTT4=
EXTT5=
EXTT6=
EXTT7=
EXTT8=
EXTT9=
EXTT10=
EXTT11=
EXTT12=
EXTT13=
PLAYORDER=
